<svg xmlns="http://www.w3.org/2000/svg" viewBox="0 0 16 16" fill="none" shape-rendering="crispEdges" width="512" height="512"><desc>"Pixel Art" by "Florian Körner", licensed under "CC0 1.0". / Remix of the original. - Created with dicebear.com</desc><metadata xmlns:dc="http://purl.org/dc/elements/1.1/" xmlns:cc="http://creativecommons.org/ns#" xmlns:rdf="http://www.w3.org/1999/02/22-rdf-syntax-ns#"><rdf:RDF><cc:Work><dc:title>Pixel Art</dc:title><dc:creator><cc:Agent rdf:about="https://www.dicebear.com"><dc:title>Florian Körner</dc:title></cc:Agent></dc:creator><dc:source>https://www.figma.com/community/file/1198754108850888330</dc:source><cc:license rdf:resource="https://creativecommons.org/publicdomain/zero/1.0/" /></cc:Work></rdf:RDF></metadata><mask id="viewboxMask"><rect width="16" height="16" rx="0" ry="0" x="0" y="0" fill="#fff" /></mask><g mask="url(#viewboxMask)"><path d="M4 2h8v1h1v3h1v2h-1v3h-1v1H9v1h4v1h1v2H2v-2h1v-1h4v-1H4v-1H3V8H2V6h1V3h1V2Z" fill="#ffdbac"/><path d="M4 2h8v1h1v3h1v2h-1v3h-1v1H4v-1H3V8H2V6h1V3h1V2Z" fill="#fff" fill-opacity=".1"/><path d="M5 13H4v3h3v-1H6v-1H5v-1ZM12 13h-1v1h-1v1H9v1h3v-3Z" fill="#428bca"/><path fill="#fff" fill-opacity=".5" d="M4 13h1v1H4zM5 14h1v1H5zM6 15h1v1H6zM9 15h1v1H9zM10 14h1v1h-1z"/><path fill="#fff" fill-opacity=".3" d="M11 14h1v1h-1z"/><path fill="#fff" fill-opacity=".5" d="M11 13h1v1h-1z"/><path fill="#fff" fill-opacity=".3" d="M10 15h1v1h-1zM5 15h1v1H5zM4 14h1v1H4z"/><path fill="#fff" d="M4 5h3v3H4zM9 5h3v3H9z"/><path fill="#76778b" d="M10 5h2v2h-2zM5 5h2v2H5z"/><path fill="#fff" fill-opacity=".4" d="M5 5h1v1H5zM6 6h1v1H6zM10 5h1v1h-1zM11 6h1v1h-1z"/><path fill="#fff" fill-opacity=".7" d="M11 5h1v1h-1zM6 5h1v1H6z"/><path d="M7 11h2v-1H7v1ZM7 10V9H6v1h1ZM9 10V9h1v1H9Z" fill="#d29985"/><path d="M5 1H3v1H2v2h1v1h1V4h8v1h1V4h1V2h-1V1h-2v1H5V1Z" fill="#cab188"/></g></svg>